<svg xmlns="http://www.w3.org/2000/svg" width="11" height="11" viewBox="0 0 11 11">
  <g id="localisation" transform="translate(-54 -711)">
    <rect id="Rectangle_17364" data-name="Rectangle 17364" width="11" height="11" transform="translate(54 711)" fill="none"/>
    <path id="Union_274" data-name="Union 274" d="M-10826.981,14.843a2.825,2.825,0,0,1-2.167-.8,2.919,2.919,0,0,1-.69-2.055V7.762a2.916,2.916,0,0,1,.69-2.052,2.655,2.655,0,0,1,1.794-.789V4.534a.376.376,0,0,1,.375-.372.373.373,0,0,1,.37.372v.372h3.231V4.534a.373.373,0,0,1,.372-.372.375.375,0,0,1,.373.372v.388a2.65,2.65,0,0,1,1.793.789,2.911,2.911,0,0,1,.688,2.052v4.224a2.914,2.914,0,0,1-.688,2.055,2.821,2.821,0,0,1-2.166.8Zm-2.112-2.857a2.208,2.208,0,0,0,.492,1.549,2.126,2.126,0,0,0,1.62.563h3.976a2.126,2.126,0,0,0,1.62-.563,2.207,2.207,0,0,0,.489-1.549V8.428h-8.2Zm8.2-4.3a2.15,2.15,0,0,0-.488-1.468,1.9,1.9,0,0,0-1.247-.545v.354a.375.375,0,0,1-.373.372.373.373,0,0,1-.372-.372V5.653h-3.231v.372a.373.373,0,0,1-.37.372.376.376,0,0,1-.375-.372V5.671a1.893,1.893,0,0,0-1.247.545,2.155,2.155,0,0,0-.491,1.468Zm-2.261,4.65a.5.5,0,0,1-.5-.5.5.5,0,0,1,.5-.495h.006a.493.493,0,0,1,.5.495.5.5,0,0,1-.5.5Zm-1.837,0a.5.5,0,0,1-.5-.5.5.5,0,0,1,.5-.495h.006a.493.493,0,0,1,.494.495.5.5,0,0,1-.494.5Zm-1.84,0a.5.5,0,0,1-.5-.5.5.5,0,0,1,.5-.495h0a.493.493,0,0,1,.5.495.5.5,0,0,1-.5.5Zm3.677-1.489a.5.5,0,0,1-.5-.5.5.5,0,0,1,.5-.5h.006a.5.5,0,0,1,.5.5.5.5,0,0,1-.5.5Zm-1.837,0a.5.5,0,0,1-.5-.5.5.5,0,0,1,.5-.5h.006a.5.5,0,0,1,.494.5.5.5,0,0,1-.494.5Zm-1.84,0a.5.5,0,0,1-.5-.5.5.5,0,0,1,.5-.5h0a.5.5,0,0,1,.5.5.5.5,0,0,1-.5.5Z" transform="translate(10884.495 706.994)" fill="#939494" stroke="#929494" stroke-linecap="round" stroke-width="0.1"/>
  </g>
</svg>
