<svg xmlns="http://www.w3.org/2000/svg" width="15" height="15" viewBox="0 0 15 15">
  <g id="localisation" transform="translate(-54 -711)">
    <rect id="Rectangle_17364" data-name="Rectangle 17364" width="15" height="15" transform="translate(54 711)" fill="none"/>
    <path id="Union_245" data-name="Union 245" d="M3.3,11.968A11.45,11.45,0,0,1,.784,8.785,6.389,6.389,0,0,1,.167,4.3,5.355,5.355,0,0,1,2.389,1.071,6.469,6.469,0,0,1,6,0,6.471,6.471,0,0,1,9.612,1.074a5.351,5.351,0,0,1,2.222,3.235,6.374,6.374,0,0,1-.618,4.48,11.439,11.439,0,0,1-2.523,3.179,4.033,4.033,0,0,1-5.389,0ZM3.178,2.105a4.1,4.1,0,0,0-1.7,2.478c-.352,1.478-.16,3.8,2.758,6.469a2.629,2.629,0,0,0,3.514,0c1.614-1.471,3.4-3.787,2.764-6.464a4.1,4.1,0,0,0-1.7-2.482A5.052,5.052,0,0,0,6,1.273,5.049,5.049,0,0,0,3.178,2.105Zm.661,3.3A2.1,2.1,0,0,1,6,3.383,2.1,2.1,0,0,1,8.161,5.4,2.1,2.1,0,0,1,6,7.417,2.1,2.1,0,0,1,3.839,5.4Zm1.178,0A.954.954,0,0,0,6,6.318.954.954,0,0,0,6.983,5.4.954.954,0,0,0,6,4.482.954.954,0,0,0,5.016,5.4Z" transform="translate(55.5 712)" fill="#939494"/>
  </g>
</svg>
