<svg id="logo-tiktok-noir" xmlns="http://www.w3.org/2000/svg" width="26" height="26" viewBox="0 0 26 26">
  <rect id="Rectangle_17507" data-name="Rectangle 17507" width="26" height="26" fill="none"/>
  <path id="Path_29683" data-name="Path 29683" d="M218.476,20.949h0q-.315.031-.632.032a6.842,6.842,0,0,1-5.743-3.138V28.53a7.811,7.811,0,1,1-7.81-7.9c.163,0,.322.016.482.025v3.893a3.964,3.964,0,0,0-.482-.048,4.032,4.032,0,0,0,0,8.063,4.1,4.1,0,0,0,4.146-3.981l.038-18.152h3.683a6.9,6.9,0,0,0,6.321,6.193Z" transform="translate(-194.476 -10.43)" fill="#1a1a1a"/>
</svg>
