<svg xmlns="http://www.w3.org/2000/svg" width="32" height="31.999" viewBox="0 0 32 31.999">
  <g id="logo-instagram" transform="translate(-351.779 -2276)">
    <path id="Path_29587" data-name="Path 29587" d="M217.3,16a16,16,0,1,1-16-16,16,16,0,0,1,16,16" transform="translate(166.48 2276)" fill="#f6f6f7"/>
    <path id="Union_258" data-name="Union 258" d="M5,16.653a5.007,5.007,0,0,1-5-5V5A5.008,5.008,0,0,1,5,0H11.65a5.008,5.008,0,0,1,5,5v6.649a5.008,5.008,0,0,1-5,5ZM1.566,5v6.649A3.439,3.439,0,0,0,5,15.087H11.65a3.44,3.44,0,0,0,3.435-3.436V5A3.439,3.439,0,0,0,11.65,1.567H5A3.439,3.439,0,0,0,1.566,5ZM4.293,8.327a4.1,4.1,0,1,1,4.1,4.1A4.105,4.105,0,0,1,4.293,8.327Zm1.474,0A2.627,2.627,0,1,0,8.394,5.7,2.63,2.63,0,0,0,5.767,8.327ZM11.759,3.95a.976.976,0,1,1,.976.976A.976.976,0,0,1,11.759,3.95Z" transform="translate(359.453 2283.673)" fill="#1a1a1a" stroke="rgba(0,0,0,0)" stroke-width="1"/>
  </g>
</svg>
