<svg xmlns="http://www.w3.org/2000/svg" width="32" height="31.999" viewBox="0 0 32 31.999">
  <g id="logo-tiktok" transform="translate(-421.668 -2276)">
    <path id="Path_29593" data-name="Path 29593" d="M309.948,16a16,16,0,1,1-16-16,16,16,0,0,1,16,16" transform="translate(143.72 2276)" fill="#f6f6f7"/>
    <path id="Path_29594" data-name="Path 29594" d="M304.529,17.713h0q-.221.021-.442.022a4.8,4.8,0,0,1-4.021-2.173v7.4a5.469,5.469,0,1,1-5.469-5.469c.115,0,.226.011.338.017V20.2a2.785,2.785,0,1,0-.338,5.548A2.86,2.86,0,0,0,297.5,23l.027-12.567H300.1a4.8,4.8,0,0,0,4.426,4.287Z" transform="translate(140.047 2272.573)" fill="#1a1a1a"/>
  </g>
</svg>
