<svg id="logo-instagram-noir" xmlns="http://www.w3.org/2000/svg" width="26" height="26.001" viewBox="0 0 26 26.001">
  <rect id="Rectangle_17505" data-name="Rectangle 17505" width="26" height="26" transform="translate(0 0)" fill="none"/>
  <path id="Union_270" data-name="Union 270" d="M7.81,26A7.818,7.818,0,0,1,0,18.191V7.811A7.818,7.818,0,0,1,7.81,0H18.19A7.818,7.818,0,0,1,26,7.811v10.38A7.818,7.818,0,0,1,18.19,26ZM2.445,7.811v10.38A5.37,5.37,0,0,0,7.81,23.555H18.19a5.371,5.371,0,0,0,5.364-5.364V7.811A5.37,5.37,0,0,0,18.19,2.446H7.81A5.37,5.37,0,0,0,2.445,7.811ZM6.7,13a6.4,6.4,0,1,1,6.4,6.4A6.41,6.41,0,0,1,6.7,13Zm2.3,0a4.1,4.1,0,1,0,4.1-4.1A4.106,4.106,0,0,0,9.006,13Z" fill="#1a1a1a"/>
</svg>
