<svg xmlns="http://www.w3.org/2000/svg" width="15.504" height="15.5" viewBox="0 0 15.504 15.5">
  <g id="Property_1_outline" data-name="Property 1=outline" transform="translate(-1.315 -1)">
    <path id="Path_29660" data-name="Path 29660" d="M11.206,19.58H7.323c-3.553,0-5.063-1.565-5.063-5.223V11.57a.54.54,0,1,1,1.079,0v2.787c0,3.034,1.043,4.11,3.984,4.11H11.2c2.941,0,3.984-1.076,3.984-4.11V11.57a.54.54,0,1,1,1.079,0v2.787C16.269,18.015,14.752,19.58,11.206,19.58Z" transform="translate(-0.179 -3.33)" fill="#fff" stroke="#fff" stroke-width="0.5"/>
    <path id="Path_29661" data-name="Path 29661" d="M11.029,9.781A2.748,2.748,0,0,1,8.255,6.71l.5-4.956a.562.562,0,0,1,.556-.5h3.464a.557.557,0,0,1,.556.5l.5,4.956a2.774,2.774,0,0,1-.69,2.166A2.843,2.843,0,0,1,11.029,9.781ZM9.805,2.363,9.36,6.821a1.658,1.658,0,0,0,.408,1.306,1.782,1.782,0,0,0,2.522,0A1.676,1.676,0,0,0,12.7,6.821l-.445-4.459Z" transform="translate(-1.945)" fill="#fff" stroke="#fff" stroke-width="0.5"/>
    <path id="Path_29662" data-name="Path 29662" d="M17.083,9.781a3.088,3.088,0,0,1-3-2.715l-.519-5.2a.573.573,0,0,1,.141-.43.545.545,0,0,1,.415-.185h2.263c2.181,0,3.2.912,3.5,3.153l.208,2.062a2.976,2.976,0,0,1-3,3.316ZM14.731,2.363l.46,4.592a1.972,1.972,0,0,0,1.892,1.714,1.858,1.858,0,0,0,1.9-2.092l-.208-2.04c-.23-1.677-.772-2.174-2.4-2.174Z" transform="translate(-3.537)" fill="#fff" stroke="#fff" stroke-width="0.5"/>
    <path id="Path_29663" data-name="Path 29663" d="M4.589,9.781a2.976,2.976,0,0,1-3-3.316l.2-2.04C2.1,2.162,3.112,1.25,5.293,1.25H7.556a.569.569,0,0,1,.415.185.545.545,0,0,1,.141.43l-.519,5.2A3.088,3.088,0,0,1,4.589,9.781Zm.7-7.419c-1.625,0-2.166.49-2.4,2.188l-.2,2.025a1.858,1.858,0,0,0,1.9,2.092A1.966,1.966,0,0,0,6.48,6.955l.46-4.592Z" fill="#fff" stroke="#fff" stroke-width="0.5"/>
    <path id="Path_29664" data-name="Path 29664" d="M13.016,21.072H9.306a.56.56,0,0,1-.556-.556V18.661a2.172,2.172,0,0,1,2.411-2.411,2.172,2.172,0,0,1,2.411,2.411v1.855A.56.56,0,0,1,13.016,21.072ZM9.863,19.959h2.6v-1.3c0-.935-.364-1.3-1.3-1.3s-1.3.364-1.3,1.3Z" transform="translate(-2.076 -4.822)" fill="#fff" stroke="#fff" stroke-width="0.5"/>
  </g>
</svg>
