<svg id="trash" xmlns="http://www.w3.org/2000/svg" width="13.381" height="14.719" viewBox="0 0 13.381 14.719">
  <path id="Path_29761" data-name="Path 29761" d="M15.153,3.986c-1.1-.11-2.208-.192-3.319-.254V3.725l-.151-.894c-.1-.632-.254-1.581-1.858-1.581h-1.8c-1.6,0-1.748.907-1.858,1.574l-.144.88c-.638.041-1.275.082-1.913.144l-1.4.137a.514.514,0,1,0,.1,1.024l1.4-.137a54.529,54.529,0,0,1,10.847.144h.055a.52.52,0,0,0,.514-.467A.526.526,0,0,0,15.153,3.986Z" transform="translate(-2.247 -1.25)" fill="#1a1a1a"/>
  <path id="Path_29762" data-name="Path 29762" d="M14.57,8.018a.865.865,0,0,0-.623-.268H5.286a.853.853,0,0,0-.623.268.887.887,0,0,0-.233.646l.425,7.053c.075,1.045.171,2.351,2.563,2.351h4.4c2.391,0,2.487-1.3,2.563-2.351L14.8,8.671A.893.893,0,0,0,14.57,8.018Zm-3.816,6.606H8.472a.516.516,0,0,1,0-1.031h2.282a.516.516,0,0,1,0,1.031Zm.576-2.75H7.9a.516.516,0,0,1,0-1.031h3.426a.516.516,0,0,1,0,1.031Z" transform="translate(-2.929 -3.349)" fill="#1a1a1a"/>
</svg>
