<svg id="unbox" xmlns="http://www.w3.org/2000/svg" width="26" height="26" viewBox="0 0 26 26">
  <rect id="Rectangle_17508" data-name="Rectangle 17508" width="26" height="26" transform="translate(0)" fill="none"/>
  <path id="Path_29685" data-name="Path 29685" d="M27.84,16.835l2.622-3.017a.908.908,0,0,0-.276-1.4L21.222,7.9a.9.9,0,0,0-1.076.212l-2.463,2.839L15.22,8.116A.89.89,0,0,0,14.144,7.9L5.179,12.418a.9.9,0,0,0-.48.634.913.913,0,0,0,.2.77l2.622,3.013-2.62,3.017a.908.908,0,0,0,.276,1.4l2.64,1.327v4.182a.908.908,0,0,0,.5.808l8.965,4.514.016,0a.792.792,0,0,0,.168.061l.034.007a.834.834,0,0,0,.184.02,1,1,0,0,0,.184-.02l.034-.007a.88.88,0,0,0,.168-.061l.016,0,8.965-4.514a.908.908,0,0,0,.5-.808V22.583l2.642-1.329a.9.9,0,0,0,.48-.634.913.913,0,0,0-.2-.77Zm-17.116,0,6.959-3.505,6.959,3.505L17.683,20.34ZM21.04,9.829l7.306,3.679-1.918,2.207-7.306-3.679Zm-6.714,0,1.918,2.207L8.938,15.715,7.02,13.508ZM8.938,17.954l7.306,3.679L14.326,23.84,9.12,21.218l-2.1-1.056Zm.677,5.532,4.529,2.282a.756.756,0,0,0,.177.063l.049.011a.8.8,0,0,0,.146.016l.029,0,.013,0a.834.834,0,0,0,.168-.018l.031-.009a.9.9,0,0,0,.132-.043c.018-.007.034-.016.049-.023a.889.889,0,0,0,.108-.063c.016-.009.029-.02.045-.029a.931.931,0,0,0,.13-.12l1.564-1.8v6.067L9.615,26.208Zm16.136,2.722L18.58,29.819V23.752l1.567,1.8a.811.811,0,0,0,.13.12.308.308,0,0,0,.045.029.843.843,0,0,0,.108.063c.016.009.034.016.049.025a.9.9,0,0,0,.132.043l.031.009a.851.851,0,0,0,.168.018l.013,0,.029,0A1.065,1.065,0,0,0,21,25.847a.388.388,0,0,0,.049-.011,1.037,1.037,0,0,0,.177-.063l4.527-2.286Zm.5-4.99L21.041,23.84l-1.918-2.207,7.306-3.679,1.918,2.207Z" transform="translate(-4.683 -6.992)" fill="#1a1a1a"/>
</svg>
