<svg xmlns="http://www.w3.org/2000/svg" width="15.001" height="15" viewBox="0 0 15.001 15">
  <path id="Union_264" data-name="Union 264" d="M2489.524-210.082a1.036,1.036,0,0,1-.345-.233l-2.567-2.574a6.663,6.663,0,0,1-3.91,1.276h-.008a6.675,6.675,0,0,1-3.719-1.127,6.677,6.677,0,0,1-2.465-3,6.671,6.671,0,0,1-.381-3.867,6.668,6.668,0,0,1,1.831-3.427,6.67,6.67,0,0,1,3.428-1.832,6.675,6.675,0,0,1,1.305-.128,6.663,6.663,0,0,1,2.561.509,6.678,6.678,0,0,1,3,2.465,6.675,6.675,0,0,1,1.127,3.719,6.661,6.661,0,0,1-1.276,3.918l2.575,2.567a1.045,1.045,0,0,1,.232.345,1.06,1.06,0,0,1,.082.409,1.054,1.054,0,0,1-.082.409,1.05,1.05,0,0,1-.233.346,1.051,1.051,0,0,1-.344.231,1.041,1.041,0,0,1-.409.082A1.049,1.049,0,0,1,2489.524-210.082Zm-8.578-12.444a4.546,4.546,0,0,0-2.05,1.682,4.551,4.551,0,0,0-.77,2.537,4.541,4.541,0,0,0,1.338,3.23,4.538,4.538,0,0,0,3.23,1.338,4.549,4.549,0,0,0,2.537-.77,4.546,4.546,0,0,0,1.682-2.05,4.543,4.543,0,0,0,.26-2.639,4.55,4.55,0,0,0-1.249-2.339,4.557,4.557,0,0,0-2.339-1.249,4.537,4.537,0,0,0-.891-.088A4.538,4.538,0,0,0,2480.946-222.526Z" transform="translate(-2476 225)" fill="#fff"/>
</svg>
