<svg xmlns="http://www.w3.org/2000/svg" width="12.165" height="12.163" viewBox="0 0 12.165 12.163">
  <path id="etoile" d="M10.538,13.483A2.323,2.323,0,0,1,9.372,13.1L7.68,12.093a.8.8,0,0,0-.685,0L5.3,13.1c-1,.6-1.59.359-1.856.165s-.668-.689-.4-1.829l.4-1.749a.808.808,0,0,0-.181-.632l-1.4-1.413a1.553,1.553,0,0,1-.549-1.607,1.557,1.557,0,0,1,1.375-.986l1.806-.3a.81.81,0,0,0,.487-.365l1-2.011C6.429,1.457,7.023,1.32,7.334,1.32s.906.137,1.358,1.054l1,2.005a.838.838,0,0,0,.492.365l1.806.3a1.54,1.54,0,0,1,1.375.986,1.577,1.577,0,0,1-.549,1.607l-1.4,1.419a.823.823,0,0,0-.181.632l.4,1.749c.26,1.139-.141,1.635-.4,1.829A1.153,1.153,0,0,1,10.538,13.483Z" transform="translate(-1.25 -1.32)" fill="#f3cd49"/>
</svg>
