<svg xmlns="http://www.w3.org/2000/svg" xmlns:xlink="http://www.w3.org/1999/xlink" width="287.755" height="42.896" viewBox="0 0 287.755 42.896">
  <defs>
    <linearGradient id="linear-gradient" x1="-0.023" y1="0.5" x2="0.98" y2="0.5" gradientUnits="objectBoundingBox">
      <stop offset="0" stop-color="#e13e85"/>
      <stop offset="1" stop-color="#7344e4"/>
    </linearGradient>
    <linearGradient id="linear-gradient-2" x1="0.642" y1="0.302" x2="0.024" y2="0.705" xlink:href="#linear-gradient"/>
  </defs>
  <g id="Group_30795" data-name="Group 30795" transform="translate(7454.266 -1880.873)">
    <g id="Group_30788" data-name="Group 30788" transform="translate(-7402.653 1887.126)">
      <g id="Group_30791" data-name="Group 30791" transform="translate(0 0)">
        <g id="Group_30690" data-name="Group 30690" transform="translate(0 0)">
          <g id="Group_30687" data-name="Group 30687" style="mix-blend-mode: normal;isolation: isolate">
            <g id="Group_30686" data-name="Group 30686">
              <g id="Group_30691" data-name="Group 30691">
                <path id="Path_29732" data-name="Path 29732" d="M5.028-9.541H.323v-2.471H12.918v2.471H8.236V3.292H5.028ZM15.08,3.53a6.8,6.8,0,0,1-4.67-1.485A5.583,5.583,0,0,1,8.735-2.364a6.009,6.009,0,0,1,1.461-4.3A5.6,5.6,0,0,1,14.463-8.21a5.552,5.552,0,0,1,3.98,1.343,4.731,4.731,0,0,1,1.414,3.6v2.044H11.706a2.433,2.433,0,0,0,1.2,1.83,6.1,6.1,0,0,0,2.84.523A10.542,10.542,0,0,0,17.587.963a8.469,8.469,0,0,0,1.6-.428V2.817A10.028,10.028,0,0,1,15.08,3.53ZM17.053-3.2v-.618q0-2.091-2.5-2.091a3.109,3.109,0,0,0-2.21.63A2.829,2.829,0,0,0,11.706-3.2Zm5.038-4.777h2.97L25.18-6.9a6.7,6.7,0,0,1,1.806-.939,6.462,6.462,0,0,1,2.163-.368,4.43,4.43,0,0,1,3.244,1.034,4.43,4.43,0,0,1,1.034,3.244V3.292H30.218V-3.766a2.233,2.233,0,0,0-.475-1.628,2.445,2.445,0,0,0-1.711-.463,3.664,3.664,0,0,0-1.473.321,4.04,4.04,0,0,0-1.259.844V3.292H22.091ZM40.745,3.53a5.282,5.282,0,0,1-3.79-1.319,5.589,5.589,0,0,1-1.39-4.218,7.213,7.213,0,0,1,.725-3.351,5.139,5.139,0,0,1,1.949-2.127,5.284,5.284,0,0,1,2.745-.725,5.644,5.644,0,0,1,3.161.856v-5.371h3.208V3.292H44.6l-.19-1.046a5.117,5.117,0,0,1-1.616.962A5.952,5.952,0,0,1,40.745,3.53Zm.879-2.353A3.694,3.694,0,0,0,43,.939,3.431,3.431,0,0,0,44.144.155V-4.978a3.413,3.413,0,0,0-2.329-.879,2.661,2.661,0,0,0-2.234.974,4.612,4.612,0,0,0-.76,2.875,3.483,3.483,0,0,0,.7,2.46A2.8,2.8,0,0,0,41.625,1.177ZM53.364,3.53A4.462,4.462,0,0,1,50.5,2.615,3.1,3.1,0,0,1,49.348.036a3.278,3.278,0,0,1,1.2-2.673,5.321,5.321,0,0,1,3.458-.986h3.327v-.309a2.122,2.122,0,0,0-.25-1.117,1.481,1.481,0,0,0-.879-.594,6.531,6.531,0,0,0-1.794-.19,11.646,11.646,0,0,0-3.707.594V-7.5a9.6,9.6,0,0,1,1.961-.523,14.528,14.528,0,0,1,2.412-.19q5.323,0,5.323,4.349V3.292h-2.78L57.451,2.27A5.873,5.873,0,0,1,53.364,3.53Zm.879-2.115a4.537,4.537,0,0,0,1.818-.345A3.351,3.351,0,0,0,57.333.155V-1.627H54.077Q52.2-1.627,52.2-.083,52.2,1.415,54.243,1.415Zm8.745-9.387h2.97L66.078-6.9a6.7,6.7,0,0,1,1.806-.939,6.462,6.462,0,0,1,2.163-.368A4.43,4.43,0,0,1,73.29-7.176a4.43,4.43,0,0,1,1.034,3.244V3.292H71.116V-3.766a2.233,2.233,0,0,0-.475-1.628,2.445,2.445,0,0,0-1.711-.463,3.664,3.664,0,0,0-1.473.321,4.04,4.04,0,0,0-1.259.844V3.292H62.988Zm19.7,11.5a6.529,6.529,0,0,1-4.622-1.5,5.692,5.692,0,0,1-1.6-4.373A5.532,5.532,0,0,1,78.15-6.725,6.771,6.771,0,0,1,82.784-8.21a10.863,10.863,0,0,1,2.044.166,7.058,7.058,0,0,1,1.663.547v2.305a7.007,7.007,0,0,0-3.066-.618,4.211,4.211,0,0,0-2.792.784,3.381,3.381,0,0,0-.915,2.685A3.508,3.508,0,0,0,80.586.31a4.014,4.014,0,0,0,2.816.82A6.974,6.974,0,0,0,86.515.464V2.84A9.6,9.6,0,0,1,82.689,3.53Zm11.929,0a6.8,6.8,0,0,1-4.67-1.485,5.583,5.583,0,0,1-1.675-4.408,6.009,6.009,0,0,1,1.461-4.3A5.6,5.6,0,0,1,94-8.21a5.552,5.552,0,0,1,3.98,1.343,4.731,4.731,0,0,1,1.414,3.6v2.044H91.244a2.433,2.433,0,0,0,1.2,1.83,6.1,6.1,0,0,0,2.84.523A10.542,10.542,0,0,0,97.125.963a8.469,8.469,0,0,0,1.6-.428V2.817A10.028,10.028,0,0,1,94.618,3.53ZM96.591-3.2v-.618q0-2.091-2.5-2.091a3.109,3.109,0,0,0-2.21.63A2.829,2.829,0,0,0,91.244-3.2ZM116.053,3.53a6.8,6.8,0,0,1-4.67-1.485,5.583,5.583,0,0,1-1.675-4.408,6.009,6.009,0,0,1,1.461-4.3,5.6,5.6,0,0,1,4.266-1.545,5.552,5.552,0,0,1,3.98,1.343,4.731,4.731,0,0,1,1.414,3.6v2.044h-8.151a2.433,2.433,0,0,0,1.2,1.83,6.1,6.1,0,0,0,2.84.523A10.542,10.542,0,0,0,118.56.963a8.469,8.469,0,0,0,1.6-.428V2.817A10.028,10.028,0,0,1,116.053,3.53ZM118.026-3.2v-.618q0-2.091-2.5-2.091a3.109,3.109,0,0,0-2.21.63,2.829,2.829,0,0,0-.642,2.079Zm9.506,6.725a3.8,3.8,0,0,1-2.875-1,3.9,3.9,0,0,1-.951-2.8V-5.5h-1.592V-7.972h1.592V-10.4l3.208-.951v3.374h2.852l-.19,2.471h-2.662V-.487a1.594,1.594,0,0,0,.416,1.259,2.048,2.048,0,0,0,1.343.356A4.35,4.35,0,0,0,130.05.892V3.1A6.762,6.762,0,0,1,127.531,3.53Zm12.833-15.542h3.208v15.3h-3.208Zm5.917,4.04h2.97L149.37-6.9a6.7,6.7,0,0,1,1.806-.939,6.462,6.462,0,0,1,2.163-.368,4.43,4.43,0,0,1,3.244,1.034,4.43,4.43,0,0,1,1.034,3.244V3.292h-3.208V-3.766a2.233,2.233,0,0,0-.475-1.628,2.445,2.445,0,0,0-1.711-.463,3.664,3.664,0,0,0-1.473.321,4.04,4.04,0,0,0-1.259.844V3.292h-3.208ZM160.848-5.5H159.28V-7.972h1.568V-9.089A3.876,3.876,0,0,1,162.013-12a4.381,4.381,0,0,1,3.184-1.129,8.059,8.059,0,0,1,2.424.38h2.9V3.292h-3.208V-5.5h-3.256V3.292h-3.208Zm6.464-2.471v-2.543a3.086,3.086,0,0,0-.7-.143,7.293,7.293,0,0,0-.772-.048,1.555,1.555,0,0,0-1.782,1.735v1Zm10.076,11.5a4.223,4.223,0,0,1-3.161-1.141,4.53,4.53,0,0,1-1.117-3.3V-7.972h3.208V-.986a2.208,2.208,0,0,0,.535,1.64,2.283,2.283,0,0,0,1.652.523,3.583,3.583,0,0,0,1.509-.321,4.164,4.164,0,0,0,1.224-.844V-7.972h3.208V3.292h-2.97l-.119-1.069A6.168,6.168,0,0,1,177.388,3.53Zm15.66,0a6.8,6.8,0,0,1-4.67-1.485A5.583,5.583,0,0,1,186.7-2.364a6.009,6.009,0,0,1,1.461-4.3,5.6,5.6,0,0,1,4.266-1.545,5.552,5.552,0,0,1,3.98,1.343,4.731,4.731,0,0,1,1.414,3.6v2.044h-8.151a2.433,2.433,0,0,0,1.2,1.83,6.1,6.1,0,0,0,2.84.523,10.542,10.542,0,0,0,1.842-.166,8.469,8.469,0,0,0,1.6-.428V2.817A10.028,10.028,0,0,1,193.048,3.53ZM195.021-3.2v-.618q0-2.091-2.5-2.091a3.109,3.109,0,0,0-2.21.63,2.829,2.829,0,0,0-.642,2.079Zm5.038-4.777h2.97l.119,1.069a6.7,6.7,0,0,1,1.806-.939,6.462,6.462,0,0,1,2.163-.368,4.43,4.43,0,0,1,3.244,1.034,4.43,4.43,0,0,1,1.034,3.244V3.292h-3.208V-3.766a2.233,2.233,0,0,0-.475-1.628A2.445,2.445,0,0,0,206-5.857a3.664,3.664,0,0,0-1.473.321,4.04,4.04,0,0,0-1.259.844V3.292h-3.208Zm19.7,11.5a6.529,6.529,0,0,1-4.622-1.5,5.692,5.692,0,0,1-1.6-4.373,5.532,5.532,0,0,1,1.687-4.384,6.771,6.771,0,0,1,4.634-1.485,10.863,10.863,0,0,1,2.044.166,7.058,7.058,0,0,1,1.663.547v2.305A7.007,7.007,0,0,0,220.5-5.81a4.211,4.211,0,0,0-2.792.784,3.381,3.381,0,0,0-.915,2.685,3.508,3.508,0,0,0,.867,2.65,4.014,4.014,0,0,0,2.816.82,6.974,6.974,0,0,0,3.113-.665V2.84A9.6,9.6,0,0,1,219.759,3.53Zm11.93,0a6.8,6.8,0,0,1-4.67-1.485,5.583,5.583,0,0,1-1.675-4.408,6.009,6.009,0,0,1,1.461-4.3,5.6,5.6,0,0,1,4.266-1.545,5.552,5.552,0,0,1,3.98,1.343,4.731,4.731,0,0,1,1.414,3.6v2.044h-8.151a2.433,2.433,0,0,0,1.2,1.83,6.1,6.1,0,0,0,2.84.523A10.542,10.542,0,0,0,234.2.963a8.469,8.469,0,0,0,1.6-.428V2.817A10.028,10.028,0,0,1,231.689,3.53ZM233.661-3.2v-.618q0-2.091-2.5-2.091a3.109,3.109,0,0,0-2.21.63,2.829,2.829,0,0,0-.642,2.079Z" transform="translate(-0.323 13.129)" fill="url(#linear-gradient)"/>
              </g>
            </g>
          </g>
        </g>
      </g>
    </g>
    <path id="Path_29776" data-name="Path 29776" d="M.532-4.968H3.124a2.916,2.916,0,0,1,1.243.245,2.31,2.31,0,0,1,.858.67,2.862,2.862,0,0,1,.495.994,4.427,4.427,0,0,1,.162,1.217A4.427,4.427,0,0,1,5.719-.626a2.862,2.862,0,0,1-.495.994,2.31,2.31,0,0,1-.858.67,2.916,2.916,0,0,1-1.243.245H.532ZM1.626.39H2.7A2.731,2.731,0,0,0,3.75.219a1.531,1.531,0,0,0,.639-.473A1.707,1.707,0,0,0,4.7-.963a4.4,4.4,0,0,0,.083-.88,4.4,4.4,0,0,0-.083-.88,1.707,1.707,0,0,0-.315-.709A1.531,1.531,0,0,0,3.75-3.9,2.731,2.731,0,0,0,2.7-4.075H1.626ZM14.418-4.968h4.5v.946H15.512v1.637h3.152v.893H15.512V.337h3.467v.946H14.418Zm13.08,0h1.094V.337H31.77v.946H27.5Zm12.59,0h1.094V1.283H40.088Zm9.289,0h1.138L52.082-.022H52.1l1.6-4.947h1.112L52.678,1.283H51.461ZM63-4.968h4.5v.946H64.094v1.637h3.152v.893H64.094V.337h3.467v.946H63Zm13.08,0h2.985a2.316,2.316,0,0,1,1.55.447,1.556,1.556,0,0,1,.517,1.243,1.815,1.815,0,0,1-.131.74,1.615,1.615,0,0,1-.306.473,1.2,1.2,0,0,1-.346.258q-.171.079-.25.105v.018a1.117,1.117,0,0,1,.3.088.891.891,0,0,1,.3.223,1.216,1.216,0,0,1,.232.4,1.761,1.761,0,0,1,.092.613,5.546,5.546,0,0,0,.083,1,1.319,1.319,0,0,0,.258.644H80.195A1.021,1.021,0,0,1,80.05.836q-.022-.245-.022-.473a4.507,4.507,0,0,0-.053-.74,1.29,1.29,0,0,0-.193-.517.815.815,0,0,0-.381-.3,1.681,1.681,0,0,0-.617-.1H77.174V1.283H76.08Zm1.094,2.845h1.795a1.139,1.139,0,0,0,.8-.25.968.968,0,0,0,.271-.749,1.158,1.158,0,0,0-.088-.486.708.708,0,0,0-.241-.293.885.885,0,0,0-.35-.14,2.322,2.322,0,0,0-.407-.035H77.174Zm13.938.954-2.346-3.8h1.269l1.655,2.8,1.628-2.8h1.226l-2.338,3.8V1.283H91.113Zm21.608-3.8h1.094V1.283H112.72Zm9.955,0h1.156l2.854,4.605h.018V-4.968h1.042V1.283h-1.156l-2.845-4.6h-.026v4.6h-1.042Zm13.929,0h4.316v.946H137.7v1.637h2.828v.893H137.7V1.283H136.6Zm12.756,0h1.094V.337h3.178v.946H149.36Zm12.52,0h1.094v3.642q0,.315.031.639a1.46,1.46,0,0,0,.175.582,1.116,1.116,0,0,0,.438.425,1.694,1.694,0,0,0,.827.166,1.694,1.694,0,0,0,.827-.166,1.116,1.116,0,0,0,.438-.425,1.46,1.46,0,0,0,.175-.582q.031-.324.031-.639V-4.968h1.094v4a2.748,2.748,0,0,1-.184,1.051,2.022,2.022,0,0,1-.521.749,2.173,2.173,0,0,1-.81.451,3.488,3.488,0,0,1-1.051.149,3.488,3.488,0,0,1-1.051-.149,2.173,2.173,0,0,1-.81-.451,2.022,2.022,0,0,1-.521-.749,2.748,2.748,0,0,1-.184-1.051Zm13.956,0h4.5v.946H176.93v1.637h3.152v.893H176.93V.337H180.4v.946h-4.561Zm13.036,0h1.156l2.854,4.605h.018V-4.968h1.042V1.283h-1.156l-2.845-4.6h-.026v4.6h-1.042Zm18.149,1.987a2.216,2.216,0,0,0-.193-.5,1.38,1.38,0,0,0-.315-.394,1.4,1.4,0,0,0-.451-.258,1.786,1.786,0,0,0-.6-.092,1.752,1.752,0,0,0-.862.2,1.691,1.691,0,0,0-.591.538,2.429,2.429,0,0,0-.337.766,3.528,3.528,0,0,0-.109.876,3.528,3.528,0,0,0,.109.876,2.429,2.429,0,0,0,.337.766,1.691,1.691,0,0,0,.591.538,1.752,1.752,0,0,0,.862.2,1.555,1.555,0,0,0,.648-.127,1.442,1.442,0,0,0,.482-.35,1.648,1.648,0,0,0,.315-.521,2.5,2.5,0,0,0,.149-.639h1.068a2.963,2.963,0,0,1-.241,1.024,2.512,2.512,0,0,1-.556.8,2.456,2.456,0,0,1-.823.521,2.852,2.852,0,0,1-1.042.184,2.948,2.948,0,0,1-1.256-.258,2.764,2.764,0,0,1-.941-.7,3.153,3.153,0,0,1-.591-1.042,3.86,3.86,0,0,1-.206-1.269,3.833,3.833,0,0,1,.206-1.261,3.153,3.153,0,0,1,.591-1.042,2.813,2.813,0,0,1,.941-.709,2.906,2.906,0,0,1,1.256-.263,3.31,3.31,0,0,1,.989.144,2.558,2.558,0,0,1,.819.42,2.183,2.183,0,0,1,.573.67,2.33,2.33,0,0,1,.271.9Zm9.666-1.987h4.5v.946h-3.406v1.637h3.152v.893h-3.152V.337h3.467v.946h-4.561Zm13.08,0h2.986a2.316,2.316,0,0,1,1.55.447,1.556,1.556,0,0,1,.517,1.243,1.815,1.815,0,0,1-.131.74,1.614,1.614,0,0,1-.306.473,1.2,1.2,0,0,1-.346.258q-.171.079-.25.105v.018a1.117,1.117,0,0,1,.3.088.891.891,0,0,1,.3.223,1.216,1.216,0,0,1,.232.4,1.761,1.761,0,0,1,.092.613,5.546,5.546,0,0,0,.083,1,1.319,1.319,0,0,0,.258.644h-1.173a1.021,1.021,0,0,1-.144-.447q-.022-.245-.022-.473a4.507,4.507,0,0,0-.053-.74,1.29,1.29,0,0,0-.193-.517.815.815,0,0,0-.381-.3,1.681,1.681,0,0,0-.617-.1h-1.611V1.283h-1.094Zm1.094,2.845h1.795a1.139,1.139,0,0,0,.8-.25.968.968,0,0,0,.271-.749,1.158,1.158,0,0,0-.088-.486A.708.708,0,0,0,233.4-3.9a.885.885,0,0,0-.35-.14,2.322,2.322,0,0,0-.407-.035h-1.777Z" transform="translate(-7401.567 1918.522)" fill="#939494"/>
    <g id="Group_30796" data-name="Group 30796" transform="translate(-7454.266 1880.873)">
      <g id="Group_30794" data-name="Group 30794">
        <path id="Path_29773" data-name="Path 29773" d="M21.448,42.9h0A21.448,21.448,0,1,1,42.9,21.448,21.447,21.447,0,0,1,21.448,42.9" fill="url(#linear-gradient-2)"/>
        <path id="Path_29774" data-name="Path 29774" d="M24.233,21.43V38.545H22.956a4.418,4.418,0,0,1-4.418-4.418V21.43H13.864V18.484a1.894,1.894,0,0,1,1.893-1.893H26.319V21.43Z" transform="translate(-5.115 -6.121)" fill="#fff"/>
        <path id="Path_29775" data-name="Path 29775" d="M40.636,16.591a2.962,2.962,0,1,1-2.962,2.962,2.95,2.95,0,0,1,2.962-2.962m2.633,9.085v8.452a4.418,4.418,0,0,1-4.418,4.418H38V25.676Z" transform="translate(-13.898 -6.121)" fill="#fff"/>
      </g>
    </g>
  </g>
</svg>
