<svg xmlns="http://www.w3.org/2000/svg" width="37" height="23" viewBox="0 0 37 23">
  <g id="Group_30431" data-name="Group 30431" transform="translate(-5012 780)">
    <ellipse id="Ellipse_17" data-name="Ellipse 17" cx="18.5" cy="11.5" rx="18.5" ry="11.5" transform="translate(5012 -780)" fill="#f6f6f7"/>
    <g id="outil-pub" transform="translate(5009.109 -819.886)">
      <path id="Path_29636" data-name="Path 29636" d="M19.392,56.439H17.527a4.264,4.264,0,0,1-.513-.032v2.3a1.185,1.185,0,0,0,1.191,1.175h.4A1.177,1.177,0,0,0,19.789,58.6Zm7.832-5.873v3.714a2.061,2.061,0,0,0,0-3.714Zm-5.568-1.779v7.271l3.016,1.751a1.071,1.071,0,0,0,1.616-.912V47.946a1.07,1.07,0,0,0-1.616-.911Zm-4.131.544a3.092,3.092,0,1,0,0,6.184h3.194V49.329Z" transform="translate(0)" fill="#8e67e9" fill-rule="evenodd"/>
    </g>
  </g>
</svg>
