<svg xmlns="http://www.w3.org/2000/svg" width="12" height="12.005" viewBox="0 0 12 12.005">
  <g id="home-hashtag" transform="translate(-2 -2.002)">
    <path id="Path_29450" data-name="Path 29450" d="M12.7,15.725h.41A1.228,1.228,0,0,0,14.335,14.5v-.41H12.7Z" transform="translate(-4.252 -4.803)" fill="#fff"/>
    <path id="Path_29451" data-name="Path 29451" d="M8.51,14.5a1.228,1.228,0,0,0,1.225,1.225h.41V14.09H8.51Z" transform="translate(-2.587 -4.803)" fill="#fff"/>
    <path id="Path_29452" data-name="Path 29452" d="M8.51,11.135v.41h1.635V9.91h-.41A1.228,1.228,0,0,0,8.51,11.135Z" transform="translate(-2.587 -3.142)" fill="#fff"/>
    <path id="Path_29453" data-name="Path 29453" d="M12.823,4.894,9.372,2.475a2.9,2.9,0,0,0-3.29.078L3.075,4.9A3.07,3.07,0,0,0,2,7.085v4.142a2.778,2.778,0,0,0,2.767,2.779h6.465A2.773,2.773,0,0,0,14,11.233V7.163A3.038,3.038,0,0,0,12.823,4.894Z" transform="translate(0 0)" fill="#fff"/>
    <path id="Path_29454" data-name="Path 29454" d="M13.11,9.91H12.7v1.635h1.635v-.41A1.228,1.228,0,0,0,13.11,9.91Z" transform="translate(-4.252 -3.142)" fill="#fff"/>
  </g>
</svg>
