<svg xmlns="http://www.w3.org/2000/svg" width="20" height="19.783" viewBox="0 0 20 19.783">
  <path id="lupe" d="M-2055.485-122.468l-3.546-3.472a9.089,9.089,0,0,1-5.866,2.141,9.094,9.094,0,0,1-4.807-1.374,9.025,9.025,0,0,1-3.683-4.456,9.024,9.024,0,0,1-.257-5.774,9.014,9.014,0,0,1,3.271-4.763A9.027,9.027,0,0,1-2064.9-142h.019a9.117,9.117,0,0,1,8.274,5.319,9.114,9.114,0,0,1-1.205,9.5l3.549,3.474a.874.874,0,0,1,.01,1.235.867.867,0,0,1-.622.259A.867.867,0,0,1-2055.485-122.468Zm-14.61-15.631a7.311,7.311,0,0,0-2.156,5.206,7.38,7.38,0,0,0,7.36,7.361,7.318,7.318,0,0,0,5.206-2.156,7.314,7.314,0,0,0,2.156-5.2,7.317,7.317,0,0,0-2.156-5.206,7.318,7.318,0,0,0-5.206-2.156A7.313,7.313,0,0,0-2070.095-138.1Z" transform="translate(2074 142)" fill="#fff"/>
</svg>
