<svg xmlns="http://www.w3.org/2000/svg" width="80" height="80" viewBox="0 0 80 80">
  <path id="star" d="M62.329,81.32a15.276,15.276,0,0,1-7.667-2.511L43.532,72.177a5.265,5.265,0,0,0-4.5,0L27.863,78.81C21.275,82.744,17.4,81.17,15.655,79.9c-1.712-1.274-4.392-4.534-2.643-12.028l2.643-11.5a5.313,5.313,0,0,0-1.191-4.159L5.233,42.913C.618,38.266.99,34.294,1.623,32.346s2.643-5.4,9.044-6.482L22.54,23.877a5.326,5.326,0,0,0,3.2-2.4L32.329,8.252c2.978-6.033,6.886-6.932,8.933-6.932s5.955.9,8.933,6.932l6.551,13.19a5.513,5.513,0,0,0,3.238,2.4l11.873,1.986c6.439,1.087,8.449,4.534,9.044,6.482s.968,5.92-3.61,10.567l-9.231,9.33a5.416,5.416,0,0,0-1.191,4.159l2.643,11.5c1.712,7.494-.93,10.754-2.643,12.028A7.581,7.581,0,0,1,62.329,81.32Z" transform="translate(-1.25 -1.32)" fill="#f3cd49"/>
</svg>
