<svg xmlns="http://www.w3.org/2000/svg" width="13" height="13" viewBox="0 0 13 13">
  <g id="tiktok-logo" transform="translate(-2924 714)">
    <rect id="Rectangle_28" data-name="Rectangle 28" width="13" height="13" transform="translate(2924 -714)" fill="none"/>
    <path id="Path_18" data-name="Path 18" d="M205.484,14.837h0q-.129.013-.259.013a2.786,2.786,0,0,1-2.351-1.315v4.478a3.2,3.2,0,1,1-3.2-3.31c.067,0,.132.007.2.011v1.631a1.587,1.587,0,0,0-.2-.02,1.69,1.69,0,0,0,0,3.378,1.7,1.7,0,0,0,1.7-1.668l.016-7.605H202.9a2.855,2.855,0,0,0,2.588,2.595Z" transform="translate(2729.27 -723.781)" fill="#fff"/>
  </g>
</svg>
