<svg xmlns="http://www.w3.org/2000/svg" width="17" height="16.999" viewBox="0 0 17 16.999">
  <path id="Union_277" data-name="Union 277" d="M-3871.315-126.66l-.938-1.251a.211.211,0,0,0-.06-.03h-.3a4.854,4.854,0,0,1-3.234-.855c-.787-.687-1.153-1.809-1.153-3.532V-135.5a4.615,4.615,0,0,1,.942-3.068,3.755,3.755,0,0,1,2.318-1.225,3.731,3.731,0,0,1,1.217-2.268,4.607,4.607,0,0,1,3.067-.942h5.068a4.44,4.44,0,0,1,3.264,1.123,4.438,4.438,0,0,1,1.124,3.264v3.168c0,3.023-1.675,4.023-3.26,4.292-.281,1.571-1.291,3.211-4.284,3.211h-.317a.043.043,0,0,0-.031.015l-.951,1.267a1.552,1.552,0,0,1-1.235.659A1.553,1.553,0,0,1-3871.315-126.66Zm-4.5-8.837v3.167a3.408,3.408,0,0,0,.746,2.637,3.677,3.677,0,0,0,2.454.562h.317a1.311,1.311,0,0,1,.979.487l0,0,.95,1.267a.387.387,0,0,0,.285.184.383.383,0,0,0,.284-.183l.951-1.268a1.233,1.233,0,0,1,.982-.491h.317a3.493,3.493,0,0,0,2.3-.657,2.713,2.713,0,0,0,.859-1.872.605.605,0,0,1,0-.1,4.1,4.1,0,0,0,.027-.52v-3.167a3.32,3.32,0,0,0-.776-2.424,3.323,3.323,0,0,0-2.423-.775h-5.068a4.308,4.308,0,0,0-.521.026.589.589,0,0,1-.252-.023C-3875.043-138.419-3875.812-137.413-3875.812-135.5Zm8.268-4.388a4.441,4.441,0,0,1,3.264,1.123,4.441,4.441,0,0,1,1.124,3.265v3.112a2.42,2.42,0,0,0,1.31-.759,3.487,3.487,0,0,0,.659-2.3v-3.168a3.323,3.323,0,0,0-.775-2.423,3.321,3.321,0,0,0-2.424-.776h-5.068c-1.716,0-2.7.617-3.048,1.928Zm.236,7.15a.792.792,0,0,1-.792-.792.792.792,0,0,1,.792-.792h.008a.792.792,0,0,1,.791.792.792.792,0,0,1-.791.792Zm-2.77,0a.792.792,0,0,1-.791-.792.791.791,0,0,1,.791-.792h.008a.792.792,0,0,1,.792.792.792.792,0,0,1-.792.792Zm-2.77,0a.792.792,0,0,1-.792-.792.792.792,0,0,1,.792-.792h.007a.792.792,0,0,1,.792.792.792.792,0,0,1-.792.792Z" transform="translate(3877 143)" fill="#1a1a1a"/>
</svg>
